<svg preserveAspectRatio="none" overflow="visible" style="display: block;" width="27" height="16.5393" viewBox="0 0 27 16.5393" fill="none" xmlns="http://www.w3.org/2000/svg">
<g id="ph:x" clip-path="url(#clip0_0_7)">
<path id="Vector" d="M25.591 14.6987C25.7068 14.7707 25.7986 14.8562 25.8612 14.9503C25.9238 15.0445 25.9561 15.1453 25.9561 15.2472C25.9561 15.3491 25.9238 15.4499 25.8612 15.544C25.7986 15.6382 25.7068 15.7237 25.591 15.7957C25.4753 15.8677 25.3379 15.9249 25.1867 15.9639C25.0355 16.0028 24.8735 16.0229 24.7098 16.0229C24.5462 16.0229 24.3841 16.0028 24.2329 15.9639C24.0817 15.9249 23.9443 15.8677 23.8286 15.7957L13.5 9.36572L3.1714 15.7957C2.93768 15.9412 2.6207 16.0229 2.29018 16.0229C1.95966 16.0229 1.64268 15.9412 1.40896 15.7957C1.17525 15.6502 1.04395 15.4529 1.04395 15.2472C1.04395 15.0415 1.17525 14.8442 1.40896 14.6987L11.7391 8.26966L1.40896 1.84065C1.17525 1.69517 1.04395 1.49787 1.04395 1.29214C1.04395 1.0864 1.17525 0.889098 1.40896 0.743624C1.64268 0.59815 1.95966 0.516423 2.29018 0.516423C2.6207 0.516423 2.93768 0.59815 3.1714 0.743624L13.5 7.17361L23.8286 0.743624C24.0623 0.59815 24.3793 0.516423 24.7098 0.516423C25.0403 0.516423 25.3573 0.59815 25.591 0.743624C25.8248 0.889098 25.9561 1.0864 25.9561 1.29214C25.9561 1.49787 25.8248 1.69517 25.591 1.84065L15.2609 8.26966L25.591 14.6987Z" fill="#333333"/>
</g>
<defs>
<clipPath id="clip0_0_7">
<rect width="27" height="16.5393" fill="white"/>
</clipPath>
</defs>
</svg>
